<?xml version="1.0" standalone="no"?>
<!DOCTYPE svg PUBLIC "-//W3C//DTD SVG 20010904//EN"
 "http://www.w3.org/TR/2001/REC-SVG-20010904/DTD/svg10.dtd">
<svg version="1.0" xmlns="http://www.w3.org/2000/svg"
 width="512.000000pt" height="512.000000pt" viewBox="0 0 512.000000 512.000000"
 preserveAspectRatio="xMidYMid meet">

<g transform="translate(0.000000,512.000000) scale(0.100000,-0.100000)"
fill="#000000" stroke="none">
<path d="M2379 4785 c-788 -86 -1478 -556 -1823 -1243 -108 -215 -170 -411
-212 -667 -25 -152 -25 -476 0 -630 74 -463 269 -861 586 -1198 355 -377 831
-621 1370 -704 140 -21 511 -24 635 -5 289 46 512 113 740 225 389 191 717
484 935 836 47 76 142 259 174 335 l16 38 -23 -14 c-271 -173 -562 -276 -872
-309 -133 -14 -383 -6 -510 16 -721 125 -1289 608 -1503 1276 -62 192 -77 300
-76 544 0 199 2 232 27 346 94 443 344 838 699 1099 45 34 85 64 87 66 8 8
-136 2 -250 -11z"/>
</g>
</svg>
