<?xml version="1.0" standalone="no"?>
<!DOCTYPE svg PUBLIC "-//W3C//DTD SVG 20010904//EN"
 "http://www.w3.org/TR/2001/REC-SVG-20010904/DTD/svg10.dtd">
<svg version="1.0" xmlns="http://www.w3.org/2000/svg"
 width="512.000000pt" height="512.000000pt" viewBox="0 0 512.000000 512.000000"
 preserveAspectRatio="xMidYMid meet">

<g transform="translate(0.000000,512.000000) scale(0.100000,-0.100000)"
fill="#000000" stroke="none">
<path d="M2527 4792 c-15 -16 -307 -725 -328 -795 -6 -22 -4 -32 13 -49 17
-17 27 -19 62 -13 123 20 172 25 286 25 114 0 163 -5 286 -25 35 -6 45 -4 63
14 16 16 20 29 15 44 -20 69 -316 783 -330 798 -22 24 -46 24 -67 1z"/>
<path d="M983 4159 c-22 -8 -28 -25 -23 -59 5 -33 323 -776 340 -794 28 -29
63 -14 98 41 78 121 252 295 375 374 55 36 70 71 41 99 -14 14 -706 312 -794
342 -8 3 -25 2 -37 -3z"/>
<path d="M4033 4136 c-454 -187 -717 -304 -730 -323 -21 -32 -9 -57 45 -92
120 -77 294 -251 373 -373 17 -26 39 -50 50 -53 45 -14 61 14 221 396 188 448
177 419 168 445 -13 34 -43 34 -127 0z"/>
<path d="M2405 3699 c-370 -47 -710 -293 -875 -634 -351 -723 117 -1564 917
-1647 715 -74 1329 540 1255 1255 -68 651 -646 1108 -1297 1026z"/>
<path d="M1120 2920 c-68 -20 -776 -312 -792 -327 -23 -21 -23 -45 0 -67 16
-13 730 -309 799 -330 36 -11 67 27 59 73 -30 173 -33 441 -6 551 19 75 -6
116 -60 100z"/>
<path d="M3948 2908 c-16 -16 -19 -28 -14 -57 31 -177 33 -420 5 -560 -13 -62
-12 -64 10 -83 15 -12 31 -16 45 -12 68 21 782 317 798 330 23 22 23 46 0 67
-16 15 -725 307 -795 328 -22 6 -32 4 -49 -13z"/>
<path d="M1298 1813 c-23 -26 -340 -783 -340 -812 -1 -27 17 -41 50 -41 30 0
782 317 806 340 27 27 14 62 -36 95 -125 82 -254 206 -347 334 -78 108 -100
121 -133 84z"/>
<path d="M3753 1812 c-10 -11 -38 -48 -63 -83 -57 -81 -216 -240 -299 -299
-108 -76 -117 -89 -83 -128 20 -24 770 -342 804 -342 33 0 51 14 50 41 0 36
-320 791 -344 812 -26 22 -44 22 -65 -1z"/>
<path d="M2212 1172 c-17 -17 -19 -27 -13 -49 21 -70 313 -779 328 -795 21
-23 45 -23 66 0 14 15 309 728 331 799 5 16 1 28 -15 44 -18 18 -28 20 -63 14
-123 -20 -172 -25 -286 -25 -114 0 -163 5 -286 25 -35 6 -45 4 -62 -13z"/>
</g>
</svg>
